<svg width="456" height="86" viewBox="0 0 456 86" fill="none" xmlns="http://www.w3.org/2000/svg">
<path d="M40.7067 1.32406C42.1258 0.504728 43.8742 0.504728 45.2933 1.32406L77.9458 20.1759C79.3649 20.9953 80.2391 22.5095 80.2391 24.1481V61.8519C80.2391 63.4905 79.3649 65.0047 77.9458 65.8241L45.2933 84.6759C43.8742 85.4953 42.1258 85.4953 40.7067 84.6759L8.05424 65.8241C6.63512 65.0047 5.76091 63.4905 5.76091 61.8519V24.1481C5.76091 22.5095 6.63512 20.9953 8.05424 20.1759L40.7067 1.32406Z" fill="url(#paint0_linear_505_592)"/>
<path fill-rule="evenodd" clip-rule="evenodd" d="M44.6431 23.234C51.4847 26.0594 55.6623 33.5267 54.4716 40.792C54.3706 41.458 54.3101 42.0231 54.3505 42.0837C54.3908 42.124 54.9559 42.2855 55.6219 42.4469C57.1557 42.8506 60.7884 44.5862 61.4342 45.232C62.302 46.0998 61.9589 47.5529 60.7884 47.9969C60.3444 48.1583 59.9206 48.0171 58.0235 47.0887C54.9357 45.5751 53.5028 45.2724 50.1729 45.4136C47.7107 45.5145 44.5825 46.0796 44.1386 46.5236C44.0578 46.6044 44.1184 47.1291 44.2798 47.674C45.6724 52.235 43.856 57.3813 39.9811 59.9646C38.0437 61.2562 36.6108 61.7204 34.2899 61.8415C30.9398 62.0231 28.296 61.014 26.0154 58.6932C23.8156 56.453 22.7864 53.8899 22.7864 50.681C22.7864 47.9162 23.8358 45.3127 25.7531 43.2946C28.0336 40.9131 30.3545 39.904 33.5836 39.904C34.6935 39.904 36.0054 40.005 36.5099 40.126C37.9024 40.449 39.7793 41.458 40.9902 42.5277L42.1002 43.5166L43.6946 43.0322C44.5624 42.7497 45.6522 42.4469 46.0962 42.3258L46.9236 42.124L45.3898 40.57C41.3131 36.4126 39.7793 30.903 41.0911 25.0907C41.6158 22.7295 42.4231 22.3258 44.6431 23.234ZM44.1385 27.1493C43.9166 27.9969 43.9771 30.2572 44.2596 31.6296C44.7642 34.1119 45.9751 36.2915 47.8923 38.2088C49.5069 39.8233 50.6774 40.6306 51.0407 40.4086C51.1618 40.348 51.2425 39.4802 51.2425 38.5115C51.2425 34.8788 49.9509 31.7507 47.408 29.2078C46.5805 28.3803 45.5109 27.4923 45.0669 27.23C44.3 26.8263 44.2193 26.8062 44.1385 27.1493ZM26.9034 47.5731C27.9529 45.5145 29.9509 43.8596 32.0094 43.3349C33.8863 42.8707 36.7319 43.4964 38.3061 44.7073L38.7702 45.0907L37.5997 45.7567C35.8641 46.7254 33.5028 48.3803 33.1597 48.8647C32.5745 49.6921 32.8368 50.8627 33.7046 51.3067C34.5321 51.7507 34.7137 51.7103 36.2273 50.6609C38.2859 49.2481 40.5462 47.9565 40.748 48.0776C41.0911 48.2996 41.414 50.2774 41.2929 51.6296C41.0709 54.3541 39.3151 56.8364 36.7521 58.0272C35.7833 58.4913 35.3394 58.5721 33.7854 58.5721C32.1507 58.5721 31.8277 58.4913 30.637 57.9263C29.0427 57.1392 27.6098 55.7063 26.8631 54.0716C26.3787 53.0423 26.3182 52.679 26.3182 50.8021C26.3182 48.8647 26.3787 48.5822 26.9034 47.5731Z" fill="white"/>
<path d="M126.081 39.7722H120.519V33.6044C120.519 32.9304 120.418 32.5091 120.216 32.3406C120.048 32.1383 119.626 32.0372 118.952 32.0372H107.476C106.836 32.0372 106.414 32.1383 106.212 32.3406C106.01 32.5091 105.909 32.9304 105.909 33.6044V55.95C105.909 56.6241 106.01 57.0622 106.212 57.2644C106.414 57.433 106.836 57.5172 107.476 57.5172H118.952C119.626 57.5172 120.048 57.433 120.216 57.2644C120.418 57.0622 120.519 56.6241 120.519 55.95V49.7822H126.081V56.5061C126.081 59.1687 124.749 60.5 122.087 60.5H104.291C101.629 60.5 100.297 59.1687 100.297 56.5061V33.0483C100.297 30.3857 101.629 29.0544 104.291 29.0544H122.087C124.749 29.0544 126.081 30.3857 126.081 33.0483V39.7722ZM154.509 29.0544H160.121V60.5H154.509V46.2433H137.371V60.5H131.81V29.0544H137.371V43.2606H154.509V29.0544ZM173.317 57.5172H190.556V60.5H167.655V29.0544H189.848V32.0372H173.317V42.9067H187.776V45.8894H173.317V57.5172ZM201.16 32.0372V46.2433H215.013C215.687 46.2433 216.108 46.1422 216.276 45.94C216.479 45.7378 216.58 45.3165 216.58 44.6761V33.6044C216.58 32.9304 216.479 32.5091 216.276 32.3406C216.108 32.1383 215.687 32.0372 215.013 32.0372H201.16ZM201.16 49.2261V60.5H195.65V29.0544H218.096C220.759 29.0544 222.09 30.3857 222.09 33.0483V45.2322C222.09 47.8948 220.759 49.2261 218.096 49.2261H215.215L222.343 60.5H216.58L209.654 49.2261H201.16ZM234.191 32.0372V46.2433H248.043C248.718 46.2433 249.139 46.1422 249.307 45.94C249.51 45.7378 249.611 45.3165 249.611 44.6761V33.6044C249.611 32.9304 249.51 32.5091 249.307 32.3406C249.139 32.1383 248.718 32.0372 248.043 32.0372H234.191ZM234.191 49.2261V60.5H228.681V29.0544H251.127C253.79 29.0544 255.121 30.3857 255.121 33.0483V45.2322C255.121 47.8948 253.79 49.2261 251.127 49.2261H248.246L255.374 60.5H249.611L242.685 49.2261H234.191ZM276.272 60.5H270.711V50.2372L257.313 29.0544H262.925L273.441 46.2939L283.501 29.0544H289.062L276.272 50.2372V60.5Z" fill="#2E2E2E"/>
<path d="M327.684 29.0544V32.0372H316.511V60.5H310.95V32.0372H299.777V29.0544H327.684ZM336.446 32.0372V46.2433H350.298C350.972 46.2433 351.393 46.1422 351.562 45.94C351.764 45.7378 351.865 45.3165 351.865 44.6761V33.6044C351.865 32.9304 351.764 32.5091 351.562 32.3406C351.393 32.1383 350.972 32.0372 350.298 32.0372H336.446ZM336.446 49.2261V60.5H330.935V29.0544H353.382C356.044 29.0544 357.376 30.3857 357.376 33.0483V45.2322C357.376 47.8948 356.044 49.2261 353.382 49.2261H350.5L357.629 60.5H351.865L344.939 49.2261H336.446ZM369.628 51.2989H383.683L376.656 32.6439L369.628 51.2989ZM387.171 60.5L384.846 54.2817H368.516L366.191 60.5H360.731L372.864 29.0544H380.498L392.682 60.5H387.171ZM417.774 55.95V33.6044C417.774 32.9304 417.673 32.5091 417.471 32.3406C417.302 32.1383 416.881 32.0372 416.207 32.0372H402.608V57.5172H416.207C416.881 57.5172 417.302 57.433 417.471 57.2644C417.673 57.0622 417.774 56.6241 417.774 55.95ZM397.046 29.0544H419.392C422.055 29.0544 423.386 30.3857 423.386 33.0483V56.5061C423.386 59.1687 422.055 60.5 419.392 60.5H397.046V29.0544ZM436.135 57.5172H453.374V60.5H430.472V29.0544H452.666V32.0372H436.135V42.9067H450.594V45.8894H436.135V57.5172Z" fill="#E83E46"/>
<defs>
<linearGradient id="paint0_linear_505_592" x1="-18.0085" y1="81.9573" x2="111.726" y2="3.30769" gradientUnits="userSpaceOnUse">
<stop stop-color="#F46565"/>
<stop offset="0.251811" stop-color="#E83E46"/>
<stop offset="1" stop-color="#7A0000"/>
</linearGradient>
</defs>
</svg>
