<svg width="487" height="118" viewBox="0 0 487 118" fill="none" xmlns="http://www.w3.org/2000/svg">
<path d="M55.38 2.80133C57.3107 1.68666 59.6893 1.68666 61.62 2.80133L106.042 28.4487C107.973 29.5633 109.162 31.6233 109.162 33.8527V85.1473C109.162 87.3767 107.973 89.4367 106.042 90.5513L61.62 116.199C59.6893 117.313 57.3107 117.313 55.38 116.199L10.9575 90.5513C9.02685 89.4367 7.83751 87.3767 7.83751 85.1473V33.8527C7.83751 31.6233 9.02685 29.5633 10.9575 28.4487L55.38 2.80133Z" fill="url(#paint0_linear_505_577)"/>
<path fill-rule="evenodd" clip-rule="evenodd" d="M60.7353 32.6091C70.043 36.453 75.7265 46.6119 74.1066 56.4962C73.9693 57.4022 73.8869 58.171 73.9418 58.2534C73.9967 58.3083 74.7655 58.5279 75.6716 58.7476C77.7583 59.2967 82.7004 61.658 83.579 62.5366C84.7597 63.7172 84.2929 65.6941 82.7004 66.2981C82.0964 66.5178 81.5198 66.3256 78.9389 65.0626C74.7381 63.0033 72.7887 62.5915 68.2584 62.7837C64.9087 62.921 60.6529 63.6897 60.0489 64.2938C59.9391 64.4036 60.0214 65.1175 60.2411 65.8588C62.1356 72.0639 59.6645 79.0653 54.3929 82.5798C51.7571 84.337 49.8076 84.9685 46.6502 85.1332C42.0924 85.3803 38.4956 84.0075 35.393 80.85C32.4003 77.8023 31 74.3154 31 69.9498C31 66.1883 32.4277 62.6464 35.0361 59.9008C38.1387 56.6609 41.2962 55.2881 45.6892 55.2881C47.1993 55.2881 48.984 55.4254 49.6704 55.5901C51.5649 56.0294 54.1183 57.4022 55.7657 58.8574L57.2758 60.2028L59.4448 59.5438C60.6255 59.1594 62.1081 58.7476 62.7122 58.5828L63.8379 58.3083L61.7512 56.1941C56.205 50.5381 54.1183 43.0425 55.903 35.1351C56.6168 31.9227 57.7151 31.3735 60.7353 32.6091ZM60.0489 37.9356C59.7469 39.0888 59.8292 42.1639 60.2136 44.0309C60.9 47.4081 62.5474 50.3734 65.1558 52.9817C67.3523 55.1783 68.9448 56.2765 69.439 55.9745C69.6037 55.8921 69.7135 54.7115 69.7135 53.3936C69.7135 48.4514 67.9563 44.1957 64.4968 40.7362C63.3711 39.6105 61.9159 38.4024 61.3119 38.0454C60.2685 37.4963 60.1587 37.4689 60.0489 37.9356ZM36.6011 65.7215C38.0288 62.921 40.747 60.6695 43.5476 59.9557C46.101 59.3242 49.9724 60.1753 52.114 61.8227L52.7455 62.3444L51.153 63.2504C48.7917 64.5683 45.5794 66.8198 45.1126 67.4787C44.3164 68.6044 44.6733 70.1969 45.8539 70.801C46.9796 71.405 47.2267 71.3501 49.286 69.9224C52.0865 68.0004 55.1616 66.2432 55.4362 66.4079C55.903 66.7099 56.3423 69.4007 56.1775 71.2403C55.8755 74.9469 53.4868 78.324 49.9998 79.9439C48.6819 80.5754 48.0779 80.6853 45.9637 80.6853C43.7398 80.6853 43.3005 80.5754 41.6805 79.8067C39.5115 78.7359 37.5621 76.7865 36.5462 74.5625C35.8872 73.1622 35.8049 72.668 35.8049 70.1145C35.8049 67.4787 35.8872 67.0943 36.6011 65.7215Z" fill="white"/>
<path d="M157.081 49.2722H151.519V43.1044C151.519 42.4304 151.418 42.0091 151.216 41.8406C151.048 41.6383 150.626 41.5372 149.952 41.5372H138.476C137.836 41.5372 137.414 41.6383 137.212 41.8406C137.01 42.0091 136.909 42.4304 136.909 43.1044V65.45C136.909 66.1241 137.01 66.5622 137.212 66.7644C137.414 66.933 137.836 67.0172 138.476 67.0172H149.952C150.626 67.0172 151.048 66.933 151.216 66.7644C151.418 66.5622 151.519 66.1241 151.519 65.45V59.2822H157.081V66.0061C157.081 68.6687 155.749 70 153.087 70H135.291C132.629 70 131.297 68.6687 131.297 66.0061V42.5483C131.297 39.8857 132.629 38.5544 135.291 38.5544H153.087C155.749 38.5544 157.081 39.8857 157.081 42.5483V49.2722ZM185.509 38.5544H191.121V70H185.509V55.7433H168.371V70H162.81V38.5544H168.371V52.7606H185.509V38.5544ZM204.317 67.0172H221.556V70H198.655V38.5544H220.848V41.5372H204.317V52.4067H218.776V55.3894H204.317V67.0172ZM232.16 41.5372V55.7433H246.013C246.687 55.7433 247.108 55.6422 247.276 55.44C247.479 55.2378 247.58 54.8165 247.58 54.1761V43.1044C247.58 42.4304 247.479 42.0091 247.276 41.8406C247.108 41.6383 246.687 41.5372 246.013 41.5372H232.16ZM232.16 58.7261V70H226.65V38.5544H249.096C251.759 38.5544 253.09 39.8857 253.09 42.5483V54.7322C253.09 57.3948 251.759 58.7261 249.096 58.7261H246.215L253.343 70H247.58L240.654 58.7261H232.16ZM265.191 41.5372V55.7433H279.043C279.718 55.7433 280.139 55.6422 280.307 55.44C280.51 55.2378 280.611 54.8165 280.611 54.1761V43.1044C280.611 42.4304 280.51 42.0091 280.307 41.8406C280.139 41.6383 279.718 41.5372 279.043 41.5372H265.191ZM265.191 58.7261V70H259.681V38.5544H282.127C284.79 38.5544 286.121 39.8857 286.121 42.5483V54.7322C286.121 57.3948 284.79 58.7261 282.127 58.7261H279.246L286.374 70H280.611L273.685 58.7261H265.191ZM307.272 70H301.711V59.7372L288.313 38.5544H293.925L304.441 55.7939L314.501 38.5544H320.062L307.272 59.7372V70Z" fill="#2E2E2E"/>
<path d="M358.684 38.5544V41.5372H347.511V70H341.95V41.5372H330.777V38.5544H358.684ZM367.446 41.5372V55.7433H381.298C381.972 55.7433 382.393 55.6422 382.562 55.44C382.764 55.2378 382.865 54.8165 382.865 54.1761V43.1044C382.865 42.4304 382.764 42.0091 382.562 41.8406C382.393 41.6383 381.972 41.5372 381.298 41.5372H367.446ZM367.446 58.7261V70H361.935V38.5544H384.382C387.044 38.5544 388.376 39.8857 388.376 42.5483V54.7322C388.376 57.3948 387.044 58.7261 384.382 58.7261H381.5L388.629 70H382.865L375.939 58.7261H367.446ZM400.628 60.7989H414.683L407.656 42.1439L400.628 60.7989ZM418.171 70L415.846 63.7817H399.516L397.191 70H391.731L403.864 38.5544H411.498L423.682 70H418.171ZM448.774 65.45V43.1044C448.774 42.4304 448.673 42.0091 448.471 41.8406C448.302 41.6383 447.881 41.5372 447.207 41.5372H433.608V67.0172H447.207C447.881 67.0172 448.302 66.933 448.471 66.7644C448.673 66.5622 448.774 66.1241 448.774 65.45ZM428.046 38.5544H450.392C453.055 38.5544 454.386 39.8857 454.386 42.5483V66.0061C454.386 68.6687 453.055 70 450.392 70H428.046V38.5544ZM467.135 67.0172H484.374V70H461.472V38.5544H483.666V41.5372H467.135V52.4067H481.594V55.3894H467.135V67.0172Z" fill="#E83E46"/>
<path d="M126.729 96L134.116 82.4647H135.837L138.408 96H136.726L136.088 92.5195H130.326L128.47 96H126.729ZM131.003 91.2433H135.856L134.618 84.3983L131.003 91.2433ZM149.086 84.2823C148.763 84.2823 148.493 84.1792 148.273 83.9729C148.067 83.7667 147.964 83.5024 147.964 83.1802C147.964 82.8579 148.067 82.5936 148.273 82.3874C148.493 82.1811 148.763 82.078 149.086 82.078C149.395 82.078 149.653 82.1811 149.859 82.3874C150.078 82.5936 150.188 82.8579 150.188 83.1802C150.188 83.5024 150.078 83.7667 149.859 83.9729C149.653 84.1792 149.395 84.2823 149.086 84.2823ZM143.13 100.254L143.381 98.8617H144.116C144.593 98.8617 144.961 98.7586 145.218 98.5524C145.463 98.359 145.624 98.0238 145.702 97.5469L147.674 86.4093H149.298L147.326 97.5856C147.171 98.5137 146.817 99.1905 146.263 99.6159C145.721 100.041 145.006 100.254 144.116 100.254H143.13ZM154.02 96.232C153.053 96.232 152.293 95.9678 151.738 95.4393C151.197 94.8978 150.926 94.1308 150.926 93.1383C150.926 92.9578 150.933 92.7773 150.945 92.5968C150.958 92.4035 150.984 92.2101 151.023 92.0168L152.028 86.4093H153.653L152.686 91.8427C152.66 92.0103 152.634 92.1715 152.608 92.3261C152.596 92.4808 152.589 92.6291 152.589 92.7709C152.589 94.1502 153.266 94.8398 154.619 94.8398C155.431 94.8398 156.16 94.5562 156.804 93.989C157.449 93.4219 157.881 92.6097 158.1 91.5527L159.009 86.4093H160.633L158.951 96H157.481L157.674 94.2598C157.262 94.8785 156.733 95.3619 156.089 95.71C155.444 96.058 154.755 96.232 154.02 96.232ZM164.892 84.2823C164.569 84.2823 164.299 84.1792 164.079 83.9729C163.873 83.7667 163.77 83.5024 163.77 83.1802C163.77 82.8579 163.873 82.5936 164.079 82.3874C164.299 82.1811 164.569 82.078 164.892 82.078C165.201 82.078 165.465 82.1811 165.684 82.3874C165.903 82.5936 166.013 82.8579 166.013 83.1802C166.013 83.5024 165.903 83.7667 165.684 83.9729C165.465 84.1792 165.201 84.2823 164.892 84.2823ZM161.817 96L163.499 86.4093H165.124L163.441 96H161.817ZM170.638 96.232C169.852 96.232 169.156 96.0645 168.55 95.7293C167.944 95.3812 167.474 94.9043 167.139 94.2984C166.803 93.6797 166.636 92.9642 166.636 92.1521C166.636 91.3013 166.784 90.515 167.081 89.7931C167.377 89.0583 167.79 88.4202 168.318 87.8788C168.847 87.3374 169.459 86.9185 170.155 86.622C170.851 86.3255 171.599 86.1773 172.398 86.1773C173.558 86.1773 174.48 86.4802 175.163 87.0861C175.846 87.6919 176.194 88.5105 176.207 89.5417H174.544C174.544 88.8843 174.312 88.3945 173.848 88.0722C173.384 87.737 172.823 87.5695 172.166 87.5695C171.457 87.5695 170.812 87.7628 170.232 88.1495C169.652 88.5234 169.188 89.0454 168.84 89.7158C168.492 90.3732 168.318 91.1273 168.318 91.9781C168.318 92.8933 168.569 93.6023 169.072 94.1051C169.575 94.6078 170.181 94.8592 170.89 94.8592C171.547 94.8592 172.16 94.6916 172.727 94.3564C173.307 94.0213 173.719 93.525 173.964 92.8676H175.627C175.382 93.525 175.015 94.1115 174.525 94.6271C174.035 95.1299 173.455 95.523 172.785 95.8066C172.127 96.0902 171.412 96.232 170.638 96.232ZM177.606 100.254L180.874 95.0719H180.332L178.031 86.4093H179.752L181.666 93.873L186.326 86.4093H188.028L179.307 100.254H177.606ZM197.035 96C196.236 96 195.617 95.8453 195.179 95.5359C194.741 95.2137 194.522 94.6723 194.522 93.9117C194.522 93.7828 194.528 93.6474 194.541 93.5056C194.554 93.351 194.573 93.1898 194.599 93.0222L195.527 87.7822H194.038L194.289 86.4093H195.778L196.397 84.1083H197.828L197.403 86.4093H200.245L199.994 87.7822H197.171L196.223 93.0222C196.197 93.2285 196.184 93.409 196.184 93.5637C196.184 93.9633 196.288 94.2404 196.494 94.3951C196.713 94.5369 197.061 94.6078 197.538 94.6078H198.795L198.543 96H197.035ZM200.731 96L202.413 86.4093H203.902L203.728 88.1109C204.14 87.5179 204.682 87.0474 205.352 86.6993C206.035 86.3513 206.809 86.1773 207.672 86.1773L207.382 87.8788H206.938C206.357 87.8788 205.81 87.9691 205.294 88.1495C204.791 88.33 204.359 88.6394 203.998 89.0777C203.638 89.5031 203.393 90.0896 203.264 90.8373L202.355 96H200.731ZM210.962 96.232C210.24 96.232 209.654 96.116 209.203 95.884C208.751 95.6391 208.416 95.3232 208.197 94.9365C207.978 94.5369 207.868 94.1115 207.868 93.6603C207.868 92.9513 208.068 92.339 208.468 91.8234C208.867 91.3078 209.422 90.9146 210.131 90.6439C210.853 90.3603 211.691 90.2185 212.644 90.2185H215.216L215.235 90.1025C215.274 89.8833 215.293 89.6642 215.293 89.4451C215.293 88.8263 215.113 88.3558 214.752 88.0335C214.404 87.7113 213.914 87.5501 213.283 87.5501C212.664 87.5501 212.09 87.7113 211.562 88.0335C211.033 88.3429 210.666 88.8005 210.459 89.4064H208.777C208.983 88.7103 209.319 88.1238 209.783 87.6468C210.26 87.1698 210.82 86.8089 211.465 86.564C212.109 86.3062 212.786 86.1773 213.495 86.1773C214.642 86.1773 215.5 86.448 216.067 86.9894C216.647 87.5308 216.937 88.2656 216.937 89.1937C216.937 89.3355 216.931 89.4837 216.918 89.6384C216.905 89.7931 216.885 89.9478 216.86 90.1025L215.835 96H214.365L214.559 94.2984C214.198 94.8398 213.721 95.2975 213.128 95.6713C212.548 96.0451 211.826 96.232 210.962 96.232ZM211.446 94.8592C212.064 94.8592 212.619 94.698 213.108 94.3758C213.611 94.0535 214.024 93.6346 214.346 93.1189C214.668 92.6033 214.881 92.0619 214.984 91.4947V91.4754H212.548C211.632 91.4754 210.911 91.6558 210.382 92.0168C209.866 92.3648 209.609 92.8482 209.609 93.467C209.609 93.9053 209.763 94.2469 210.073 94.4918C210.395 94.7367 210.853 94.8592 211.446 94.8592ZM222.565 96.232C221.74 96.232 221.031 96.0451 220.438 95.6713C219.858 95.2846 219.413 94.7689 219.104 94.1244C218.795 93.4799 218.64 92.7709 218.64 91.9974C218.64 90.863 218.878 89.864 219.355 89.0003C219.845 88.1238 220.503 87.4341 221.328 86.9314C222.153 86.4286 223.074 86.1773 224.093 86.1773C224.943 86.1773 225.639 86.3448 226.181 86.68C226.722 87.0152 227.122 87.4599 227.38 88.0142L228.424 82.078H230.048L227.592 96H226.104L226.239 94.4144C225.865 94.8785 225.382 95.2975 224.789 95.6713C224.196 96.0451 223.455 96.232 222.565 96.232ZM223.029 94.8205C223.764 94.8205 224.415 94.6207 224.982 94.2211C225.562 93.8215 226.013 93.2865 226.336 92.6162C226.671 91.933 226.838 91.1853 226.838 90.3732C226.838 89.5353 226.6 88.865 226.123 88.3622C225.646 87.8466 224.989 87.5888 224.151 87.5888C223.416 87.5888 222.758 87.7757 222.178 88.1495C221.598 88.5234 221.141 89.0326 220.805 89.6771C220.483 90.3087 220.322 91.0306 220.322 91.8427C220.322 92.6935 220.561 93.4025 221.037 93.9697C221.527 94.5369 222.191 94.8205 223.029 94.8205ZM233.531 84.2823C233.209 84.2823 232.938 84.1792 232.719 83.9729C232.513 83.7667 232.409 83.5024 232.409 83.1802C232.409 82.8579 232.513 82.5936 232.719 82.3874C232.938 82.1811 233.209 82.078 233.531 82.078C233.84 82.078 234.105 82.1811 234.324 82.3874C234.543 82.5936 234.652 82.8579 234.652 83.1802C234.652 83.5024 234.543 83.7667 234.324 83.9729C234.105 84.1792 233.84 84.2823 233.531 84.2823ZM230.456 96L232.139 86.4093H233.763L232.081 96H230.456ZM234.946 96L236.629 86.4093H238.098L237.905 88.1495C238.317 87.5308 238.846 87.0474 239.49 86.6993C240.135 86.3513 240.825 86.1773 241.559 86.1773C242.513 86.1773 243.267 86.448 243.822 86.9894C244.376 87.5179 244.653 88.2785 244.653 89.271C244.653 89.4515 244.64 89.6384 244.615 89.8318C244.602 90.0123 244.576 90.1992 244.537 90.3925L243.551 96H241.927L242.874 90.5666C242.9 90.399 242.919 90.2378 242.932 90.0832C242.958 89.9285 242.971 89.7802 242.971 89.6384C242.971 88.2591 242.294 87.5695 240.941 87.5695C240.129 87.5695 239.4 87.8531 238.756 88.4202C238.124 88.9874 237.699 89.7996 237.48 90.8566L236.571 96H234.946ZM250.246 92.9836C249.679 92.9836 249.176 92.9062 248.738 92.7515L247.79 93.4863C248.074 93.6668 248.396 93.8086 248.757 93.9117C249.118 94.0148 249.647 94.0922 250.343 94.1437C251.245 94.2082 251.948 94.3693 252.45 94.6271C252.966 94.885 253.327 95.2072 253.533 95.5939C253.739 95.9678 253.843 96.3609 253.843 96.7734C253.843 97.4824 253.636 98.1141 253.224 98.6684C252.811 99.2356 252.238 99.6803 251.503 100.003C250.768 100.325 249.924 100.486 248.97 100.486C247.797 100.486 246.843 100.247 246.108 99.7705C245.373 99.3065 245.006 98.6362 245.006 97.7596C245.006 97.1537 245.174 96.5994 245.509 96.0967C245.831 95.6068 246.308 95.1685 246.94 94.7818C246.488 94.5756 246.121 94.3178 245.837 94.0084L245.915 93.5443L247.713 92.1134C247.21 91.6236 246.959 90.9919 246.959 90.2185C246.959 89.458 247.159 88.7747 247.558 88.1689C247.958 87.5501 248.493 87.0667 249.163 86.7187C249.846 86.3577 250.607 86.1773 251.445 86.1773C251.999 86.1773 252.489 86.2546 252.914 86.4093H256.453L256.221 87.6081L254.423 87.6855C254.603 88.0593 254.693 88.4783 254.693 88.9423C254.693 89.7029 254.494 90.3925 254.094 91.0113C253.707 91.6172 253.179 92.1006 252.508 92.4615C251.838 92.8095 251.084 92.9836 250.246 92.9836ZM250.478 91.6494C251.264 91.6494 251.902 91.4173 252.392 90.9533C252.895 90.4763 253.146 89.864 253.146 89.1163C253.146 88.6136 252.972 88.2204 252.624 87.9368C252.276 87.6533 251.806 87.5115 251.213 87.5115C250.427 87.5115 249.782 87.7499 249.279 88.2269C248.789 88.691 248.544 89.2968 248.544 90.0445C248.544 90.5601 248.712 90.9597 249.047 91.2433C249.395 91.514 249.872 91.6494 250.478 91.6494ZM246.65 97.4502C246.65 97.9787 246.875 98.3912 247.326 98.6877C247.777 98.9971 248.403 99.1518 249.202 99.1518C250.078 99.1518 250.8 98.952 251.368 98.5524C251.935 98.1528 252.218 97.6113 252.218 96.9281C252.218 96.5672 252.077 96.2514 251.793 95.9807C251.509 95.6971 250.949 95.523 250.111 95.4586C249.415 95.4199 248.796 95.3361 248.254 95.2072C247.184 95.8002 246.65 96.5479 246.65 97.4502ZM266.448 96.232C265.263 96.232 264.309 95.8646 263.587 95.1299C262.878 94.3951 262.523 93.409 262.523 92.1715C262.523 91.0628 262.768 90.0574 263.258 89.155C263.748 88.2398 264.418 87.5179 265.269 86.9894C266.133 86.448 267.112 86.1773 268.208 86.1773C269.046 86.1773 269.748 86.3448 270.316 86.68C270.896 87.0023 271.328 87.4406 271.611 87.9949C271.908 88.5492 272.056 89.1615 272.056 89.8318C272.056 90.0896 272.024 90.3861 271.959 90.7212C271.908 91.0435 271.856 91.3271 271.805 91.572H264.147C264.122 91.7912 264.109 91.9845 264.109 92.1521C264.109 93.0674 264.367 93.7506 264.882 94.2017C265.398 94.64 266.004 94.8592 266.7 94.8592C267.37 94.8592 267.957 94.7045 268.459 94.3951C268.975 94.0728 269.375 93.6539 269.658 93.1383H271.263C270.864 94.0277 270.245 94.7689 269.407 95.3619C268.569 95.942 267.583 96.232 266.448 96.232ZM267.995 87.5501C267.222 87.5501 266.494 87.7886 265.81 88.2656C265.127 88.7296 264.657 89.4128 264.399 90.3152H270.432C270.445 90.2378 270.451 90.1669 270.451 90.1025C270.464 90.0251 270.47 89.9542 270.47 89.8898C270.47 89.155 270.245 88.5814 269.794 88.1689C269.342 87.7564 268.743 87.5501 267.995 87.5501ZM272.048 96L276.263 91.1466L273.807 86.4093H275.489L277.5 90.3732L280.884 86.4093H282.624L278.429 91.2627L280.865 96H279.202L277.191 92.0361L273.807 96H272.048ZM281.89 100.254L284.346 86.4093H285.854L285.699 87.9949C286.099 87.4921 286.589 87.0667 287.169 86.7187C287.762 86.3577 288.49 86.1773 289.354 86.1773C290.179 86.1773 290.888 86.3577 291.481 86.7187C292.074 87.0796 292.525 87.5695 292.834 88.1882C293.157 88.807 293.318 89.5095 293.318 90.2959C293.318 91.4173 293.073 92.4293 292.583 93.3316C292.106 94.2211 291.449 94.9301 290.611 95.4586C289.773 95.9742 288.825 96.232 287.768 96.232C287.253 96.232 286.776 96.1418 286.337 95.9613C285.912 95.7809 285.545 95.5488 285.235 95.2652C284.939 94.9816 284.72 94.6851 284.578 94.3758L283.514 100.254H281.89ZM287.865 94.8205C288.6 94.8205 289.251 94.6336 289.818 94.2598C290.385 93.8859 290.83 93.3767 291.152 92.7322C291.474 92.0877 291.636 91.3529 291.636 90.5279C291.636 89.6771 291.391 88.9746 290.901 88.4202C290.424 87.8659 289.773 87.5888 288.948 87.5888C288.213 87.5888 287.556 87.7822 286.976 88.1689C286.395 88.5556 285.938 89.0841 285.603 89.7544C285.268 90.4119 285.1 91.1466 285.1 91.9588C285.1 92.8224 285.351 93.5185 285.854 94.0471C286.357 94.5627 287.027 94.8205 287.865 94.8205ZM298.908 96.232C297.722 96.232 296.768 95.8646 296.046 95.1299C295.337 94.3951 294.983 93.409 294.983 92.1715C294.983 91.0628 295.228 90.0574 295.718 89.155C296.208 88.2398 296.878 87.5179 297.729 86.9894C298.592 86.448 299.572 86.1773 300.668 86.1773C301.506 86.1773 302.208 86.3448 302.775 86.68C303.356 87.0023 303.787 87.4406 304.071 87.9949C304.367 88.5492 304.516 89.1615 304.516 89.8318C304.516 90.0896 304.483 90.3861 304.419 90.7212C304.367 91.0435 304.316 91.3271 304.264 91.572H296.607C296.581 91.7912 296.569 91.9845 296.569 92.1521C296.569 93.0674 296.826 93.7506 297.342 94.2017C297.858 94.64 298.463 94.8592 299.16 94.8592C299.83 94.8592 300.416 94.7045 300.919 94.3951C301.435 94.0728 301.834 93.6539 302.118 93.1383H303.723C303.323 94.0277 302.705 94.7689 301.867 95.3619C301.029 95.942 300.043 96.232 298.908 96.232ZM300.455 87.5501C299.682 87.5501 298.953 87.7886 298.27 88.2656C297.587 88.7296 297.116 89.4128 296.859 90.3152H302.891C302.904 90.2378 302.911 90.1669 302.911 90.1025C302.924 90.0251 302.93 89.9542 302.93 89.8898C302.93 89.155 302.705 88.5814 302.253 88.1689C301.802 87.7564 301.203 87.5501 300.455 87.5501ZM305.644 96L307.326 86.4093H308.815L308.641 88.1109C309.054 87.5179 309.595 87.0474 310.265 86.6993C310.949 86.3513 311.722 86.1773 312.586 86.1773L312.296 87.8788H311.851C311.271 87.8788 310.723 87.9691 310.207 88.1495C309.705 88.33 309.273 88.6394 308.912 89.0777C308.551 89.5031 308.306 90.0896 308.177 90.8373L307.268 96H305.644ZM316.03 84.2823C315.708 84.2823 315.437 84.1792 315.218 83.9729C315.012 83.7667 314.909 83.5024 314.909 83.1802C314.909 82.8579 315.012 82.5936 315.218 82.3874C315.437 82.1811 315.708 82.078 316.03 82.078C316.34 82.078 316.604 82.1811 316.823 82.3874C317.042 82.5936 317.152 82.8579 317.152 83.1802C317.152 83.5024 317.042 83.7667 316.823 83.9729C316.604 84.1792 316.34 84.2823 316.03 84.2823ZM312.956 96L314.638 86.4093H316.262L314.58 96H312.956ZM321.7 96.232C320.514 96.232 319.56 95.8646 318.838 95.1299C318.129 94.3951 317.775 93.409 317.775 92.1715C317.775 91.0628 318.02 90.0574 318.509 89.155C318.999 88.2398 319.67 87.5179 320.52 86.9894C321.384 86.448 322.364 86.1773 323.459 86.1773C324.297 86.1773 325 86.3448 325.567 86.68C326.147 87.0023 326.579 87.4406 326.863 87.9949C327.159 88.5492 327.307 89.1615 327.307 89.8318C327.307 90.0896 327.275 90.3861 327.211 90.7212C327.159 91.0435 327.108 91.3271 327.056 91.572H319.399C319.373 91.7912 319.36 91.9845 319.36 92.1521C319.36 93.0674 319.618 93.7506 320.134 94.2017C320.649 94.64 321.255 94.8592 321.951 94.8592C322.622 94.8592 323.208 94.7045 323.711 94.3951C324.226 94.0728 324.626 93.6539 324.91 93.1383H326.515C326.115 94.0277 325.496 94.7689 324.658 95.3619C323.82 95.942 322.834 96.232 321.7 96.232ZM323.247 87.5501C322.473 87.5501 321.745 87.7886 321.062 88.2656C320.379 88.7296 319.908 89.4128 319.65 90.3152H325.683C325.696 90.2378 325.702 90.1669 325.702 90.1025C325.715 90.0251 325.722 89.9542 325.722 89.8898C325.722 89.155 325.496 88.5814 325.045 88.1689C324.594 87.7564 323.994 87.5501 323.247 87.5501ZM328.436 96L330.118 86.4093H331.588L331.394 88.1495C331.807 87.5308 332.335 87.0474 332.98 86.6993C333.624 86.3513 334.314 86.1773 335.049 86.1773C336.003 86.1773 336.757 86.448 337.311 86.9894C337.865 87.5179 338.143 88.2785 338.143 89.271C338.143 89.4515 338.13 89.6384 338.104 89.8318C338.091 90.0123 338.065 90.1992 338.026 90.3925L337.04 96H335.416L336.364 90.5666C336.389 90.399 336.409 90.2378 336.422 90.0832C336.447 89.9285 336.46 89.7802 336.46 89.6384C336.46 88.2591 335.784 87.5695 334.43 87.5695C333.618 87.5695 332.89 87.8531 332.245 88.4202C331.613 88.9874 331.188 89.7996 330.969 90.8566L330.06 96H328.436ZM343.851 96.232C343.065 96.232 342.369 96.0645 341.763 95.7293C341.157 95.3812 340.687 94.9043 340.351 94.2984C340.016 93.6797 339.849 92.9642 339.849 92.1521C339.849 91.3013 339.997 90.515 340.293 89.7931C340.59 89.0583 341.002 88.4202 341.531 87.8788C342.06 87.3374 342.672 86.9185 343.368 86.622C344.064 86.3255 344.812 86.1773 345.611 86.1773C346.771 86.1773 347.693 86.4802 348.376 87.0861C349.059 87.6919 349.407 88.5105 349.42 89.5417H347.757C347.757 88.8843 347.525 88.3945 347.061 88.0722C346.597 87.737 346.036 87.5695 345.379 87.5695C344.67 87.5695 344.025 87.7628 343.445 88.1495C342.865 88.5234 342.401 89.0454 342.053 89.7158C341.705 90.3732 341.531 91.1273 341.531 91.9781C341.531 92.8933 341.782 93.6023 342.285 94.1051C342.788 94.6078 343.394 94.8592 344.103 94.8592C344.76 94.8592 345.372 94.6916 345.94 94.3564C346.52 94.0213 346.932 93.525 347.177 92.8676H348.84C348.595 93.525 348.228 94.1115 347.738 94.6271C347.248 95.1299 346.668 95.523 345.998 95.8066C345.34 96.0902 344.625 96.232 343.851 96.232ZM354.783 96.232C353.597 96.232 352.643 95.8646 351.921 95.1299C351.212 94.3951 350.857 93.409 350.857 92.1715C350.857 91.0628 351.102 90.0574 351.592 89.155C352.082 88.2398 352.752 87.5179 353.603 86.9894C354.467 86.448 355.447 86.1773 356.542 86.1773C357.38 86.1773 358.083 86.3448 358.65 86.68C359.23 87.0023 359.662 87.4406 359.945 87.9949C360.242 88.5492 360.39 89.1615 360.39 89.8318C360.39 90.0896 360.358 90.3861 360.294 90.7212C360.242 91.0435 360.19 91.3271 360.139 91.572H352.482C352.456 91.7912 352.443 91.9845 352.443 92.1521C352.443 93.0674 352.701 93.7506 353.217 94.2017C353.732 94.64 354.338 94.8592 355.034 94.8592C355.704 94.8592 356.291 94.7045 356.794 94.3951C357.309 94.0728 357.709 93.6539 357.993 93.1383H359.597C359.198 94.0277 358.579 94.7689 357.741 95.3619C356.903 95.942 355.917 96.232 354.783 96.232ZM356.33 87.5501C355.556 87.5501 354.828 87.7886 354.145 88.2656C353.461 88.7296 352.991 89.4128 352.733 90.3152H358.766C358.779 90.2378 358.785 90.1669 358.785 90.1025C358.798 90.0251 358.805 89.9542 358.805 89.8898C358.805 89.155 358.579 88.5814 358.128 88.1689C357.677 87.7564 357.077 87.5501 356.33 87.5501Z" fill="#2E2E2E"/>
<defs>
<linearGradient id="paint0_linear_505_577" x1="-24.5" y1="112.5" x2="152" y2="5.5" gradientUnits="userSpaceOnUse">
<stop stop-color="#F46565"/>
<stop offset="0.251811" stop-color="#E83E46"/>
<stop offset="1" stop-color="#7A0000"/>
</linearGradient>
</defs>
</svg>
