<svg width="117" height="117" viewBox="0 0 117 117" fill="none" xmlns="http://www.w3.org/2000/svg">
<path d="M55.38 1.80133C57.3107 0.686663 59.6893 0.686664 61.62 1.80133L106.042 27.4487C107.973 28.5633 109.162 30.6233 109.162 32.8527V84.1473C109.162 86.3767 107.973 88.4367 106.042 89.5513L61.62 115.199C59.6893 116.313 57.3107 116.313 55.38 115.199L10.9575 89.5513C9.02685 88.4367 7.83751 86.3767 7.83751 84.1473V32.8527C7.83751 30.6233 9.02685 28.5633 10.9575 27.4487L55.38 1.80133Z" fill="url(#paint0_linear_505_579)"/>
<path fill-rule="evenodd" clip-rule="evenodd" d="M60.7353 31.6091C70.043 35.453 75.7265 45.6119 74.1066 55.4962C73.9693 56.4022 73.8869 57.171 73.9418 57.2534C73.9967 57.3083 74.7655 57.5279 75.6716 57.7476C77.7583 58.2967 82.7004 60.658 83.579 61.5366C84.7597 62.7172 84.2929 64.6941 82.7004 65.2981C82.0964 65.5178 81.5198 65.3256 78.9389 64.0626C74.7381 62.0033 72.7887 61.5915 68.2584 61.7837C64.9087 61.921 60.6529 62.6897 60.0489 63.2938C59.9391 63.4036 60.0214 64.1175 60.2411 64.8588C62.1356 71.0639 59.6645 78.0653 54.3929 81.5798C51.7571 83.337 49.8076 83.9685 46.6502 84.1332C42.0924 84.3803 38.4956 83.0075 35.393 79.85C32.4003 76.8023 31 73.3154 31 68.9498C31 65.1883 32.4277 61.6464 35.0361 58.9008C38.1387 55.6609 41.2962 54.2881 45.6892 54.2881C47.1993 54.2881 48.984 54.4254 49.6704 54.5901C51.5649 55.0294 54.1183 56.4022 55.7657 57.8574L57.2758 59.2028L59.4448 58.5438C60.6255 58.1594 62.1081 57.7476 62.7122 57.5828L63.8379 57.3083L61.7512 55.1941C56.205 49.5381 54.1183 42.0425 55.903 34.1351C56.6168 30.9227 57.7151 30.3735 60.7353 31.6091ZM60.0489 36.9356C59.7469 38.0888 59.8292 41.1639 60.2136 43.0309C60.9 46.4081 62.5474 49.3734 65.1558 51.9817C67.3523 54.1783 68.9448 55.2765 69.439 54.9745C69.6037 54.8921 69.7135 53.7115 69.7135 52.3936C69.7135 47.4514 67.9563 43.1957 64.4968 39.7362C63.3711 38.6105 61.9159 37.4024 61.3119 37.0454C60.2685 36.4963 60.1587 36.4689 60.0489 36.9356ZM36.6011 64.7215C38.0288 61.921 40.747 59.6695 43.5476 58.9557C46.101 58.3242 49.9724 59.1753 52.114 60.8227L52.7455 61.3444L51.153 62.2504C48.7917 63.5683 45.5794 65.8198 45.1126 66.4787C44.3164 67.6044 44.6733 69.1969 45.8539 69.801C46.9796 70.405 47.2267 70.3501 49.286 68.9224C52.0865 67.0004 55.1616 65.2432 55.4362 65.4079C55.903 65.7099 56.3423 68.4007 56.1775 70.2403C55.8755 73.9469 53.4868 77.324 49.9998 78.9439C48.6819 79.5754 48.0779 79.6853 45.9637 79.6853C43.7398 79.6853 43.3005 79.5754 41.6805 78.8067C39.5115 77.7359 37.5621 75.7865 36.5462 73.5625C35.8872 72.1622 35.8049 71.668 35.8049 69.1145C35.8049 66.4787 35.8872 66.0943 36.6011 64.7215Z" fill="white"/>
<defs>
<linearGradient id="paint0_linear_505_579" x1="-24.5" y1="111.5" x2="152" y2="4.5" gradientUnits="userSpaceOnUse">
<stop stop-color="#F46565"/>
<stop offset="0.251811" stop-color="#E83E46"/>
<stop offset="1" stop-color="#7A0000"/>
</linearGradient>
</defs>
</svg>
